:version 1.10
:name ASF
:units
  mass 1
  length 1
  angle deg
:documentation
  ASF file generated by Kaydara
:root
  axis xyz
  order  tx ty tz rx ry rz
  position 0 0 0
  orientation 0 0 0
:bonedata
  begin
    id 1
    name RightUpLegDummy
    direction -0.718183 -0.695806 0.00816078
    length 4.904
    axis 0 0 0 xyz
  end
  begin
    id 2
    name RightUpLeg
    direction -0.0736652 -0.994202 0.0783343
    length 17.4976
    axis -2.72909 -3.00389 -4.00133 xyz
    dof rx ry rz
  end
  begin
    id 3
    name RightLeg
    direction -0.0389037 -0.994596 -0.0962598
    length 16.5821
    axis 3.95836 -18.5909 -4.46993 xyz
    dof rx ry rz
  end
  begin
    id 4
    name RightFoot
    direction -0.311643 -0.412678 0.855906
    length 3.77069
    axis -1.99483 -18.8351 -3.27644 xyz
    dof rx ry rz
  end
  begin
    id 5
    name RightToes
    direction -0.317852 0.0389852 0.947339
    length 3.85082
    axis -2.00228 -18.1713 -3.25211 xyz
    dof rx ry rz
  end
  begin
    id 6
    name SpineDummy
    direction 8.3039e-015 1 4.44677e-016
    length 4.6813
    axis 0 0 0 xyz
  end
  begin
    id 7
    name Spine
    direction -0.000262373 0.999988 0.00493267
    length 10.1015
    axis -0.00246081 0.00062579 0.0150362 xyz
    dof rx ry rz
  end
  begin
    id 8
    name Spine1
    direction 0 0 0
    length 0
    axis -0.00349562 0.000650293 0.0196666 xyz
    dof rx ry rz
  end
  begin
    id 9
    name HEadDummy
    direction -0.000343232 0.999999 0.00123745
    length 3.43865
    axis -0.00349562 0.000650293 0.0196666 xyz
  end
  begin
    id 10
    name HEad
    direction -0.0461221 0.980933 0.188796
    length 5.12695
    axis -0.00351404 -7.04812 0.0199272 xyz
    dof rx ry rz
  end
  begin
    id 11
    name LeftShoulder1Dummy
    direction 0.998904 -0.0399089 -0.0244534
    length 3.5433
    axis -0.00349562 0.000650293 0.0196666 xyz
  end
  begin
    id 12
    name LeftShoulder1
    direction 0.99951 1.64443e-005 0.0312999
    length 4.05031
    axis -0.00349562 0.000650293 0.0196666 xyz
    dof rx ry rz
  end
  begin
    id 13
    name LeftArm
    direction 0.984791 0.0515299 0.165927
    length 12.9126
    axis -64.823 -10.7743 5.20463 xyz
    dof rx ry rz
  end
  begin
    id 14
    name LeftForeArm
    direction 0.984968 0.0534808 0.16425
    length 10.8596
    axis -30.0462 -7.70601 1.87451 xyz
    dof rx ry rz
  end
  begin
    id 15
    name LeftHand
    direction 0.975871 0.0289682 0.216418
    length 6.62295
    axis -20.1348 -6.98077 1.86072 xyz
    dof rx ry rz
  end
  begin
    id 16
    name RightShoulderDummy
    direction -0.998877 -0.0405946 -0.0244307
    length 3.5433
    axis -0.00349562 0.000650293 0.0196666 xyz
  end
  begin
    id 17
    name RightShoulder
    direction -0.998933 -0.0249743 -0.0388558
    length 4.05031
    axis -0.0205316 -4.02113 1.41395 xyz
    dof rx ry rz
  end
  begin
    id 18
    name RightArm
    direction -0.997559 0.068664 0.0127103
    length 12.9638
    axis -67.3882 1.84188 -6.15987 xyz
    dof rx ry rz
  end
  begin
    id 19
    name RightForeArm
    direction -0.991508 0.0912848 0.0926241
    length 10.8312
    axis -22.1975 3.41087 -4.28711 xyz
    dof rx ry rz
  end
  begin
    id 20
    name RightHand
    direction -0.989262 0.0600788 0.133232
    length 6.57864
    axis -12.2911 2.17515 -4.39675 xyz
    dof rx ry rz
  end
  begin
    id 21
    name LeftUpLegDummy
    direction 0.718183 -0.695806 0.00816078
    length 4.904
    axis 0 0 0 xyz
  end
  begin
    id 22
    name LeftUpLeg
    direction 0.0831398 -0.99469 0.0606531
    length 17.4976
    axis -1.71016 2.29552 4.63832 xyz
    dof rx ry rz
  end
  begin
    id 23
    name LeftLeg
    direction 0.0498442 -0.991778 -0.117862
    length 16.5821
    axis 5.13757 15.5727 5.13348 xyz
    dof rx ry rz
  end
  begin
    id 24
    name LeftFoot
    direction 0.269026 -0.433896 0.85986
    length 3.77069
    axis -0.576502 15.6961 4.10267 xyz
    dof rx ry rz
  end
  begin
    id 25
    name LeftToes
    direction 0.277311 0.0251143 0.960452
    length 3.85048
    axis -0.576502 15.6961 4.10267 xyz
    dof rx ry rz
  end
:hierarchy
  begin
    root RightUpLegDummy SpineDummy LeftUpLegDummy
    RightUpLegDummy RightUpLeg
    RightUpLeg RightLeg
    RightLeg RightFoot
    RightFoot RightToes
    SpineDummy Spine
    Spine Spine1
    Spine1 HEadDummy LeftShoulder1Dummy RightShoulderDummy
    HEadDummy HEad
    LeftShoulder1Dummy LeftShoulder1
    LeftShoulder1 LeftArm
    LeftArm LeftForeArm
    LeftForeArm LeftHand
    RightShoulderDummy RightShoulder
    RightShoulder RightArm
    RightArm RightForeArm
    RightForeArm RightHand
    LeftUpLegDummy LeftUpLeg
    LeftUpLeg LeftLeg
    LeftLeg LeftFoot
    LeftFoot LeftToes
  end

:SAMPLES-PER-SECOND 30
:FULLY-SPECIFIED
:DEGREES
31
root  0.919183 38.4303 -83.0325 2.28857 -12.9694 -1.03226
RightUpLeg  -16.9749 -3.98396 8.47039
RightLeg  23.5984 3.3186 -4.0961
RightFoot  -11.4555 0.0992248 -4.26323
RightToes  5.82077e-011 -3.18055e-015 -2.98177e-016
Spine  13.1088 0.306163 9.36277
Spine1  8.07525 1.38499 0.738769
HEad  -13.3054 6.10446 -0.945
LeftShoulder1  -3.88251e-019 9.70628e-020 -3.87848e-018
LeftArm  -8.48096 52.2304 -70.725
LeftForeArm  -8.20556 -25.2207 2.24428
LeftHand  -0.753998 -4.00043 9.9429
RightShoulder  7.28436 10.4229 34.5309
RightArm  6.34943 -31.8261 24.655
RightForeArm  16.1008 16.2004 -6.77019
RightHand  -1.03938 2.83731 -14.4806
LeftUpLeg  -18.2153 3.49362 1.32638
LeftLeg  35.9173 8.16149 17.7273
LeftFoot  -9.03446 0.207075 -6.50085
LeftToes  9.37148e-011 4.50685e-012 -4.11107e-011
32
root  0.955848 38.3149 -83.1623 3.03038 -13.8562 -1.32503
RightUpLeg  -18.4459 -4.33445 9.15116
RightLeg  24.496 4.62399 -4.10007
RightFoot  -11.6302 0.095645 -4.42654
RightToes  5.82077e-011 -3.18055e-015 -2.98177e-016
Spine  14.4071 0.212796 9.30127
Spine1  7.38193 1.19314 1.47794
HEad  -9.86645 6.24468 -1.47842
LeftShoulder1  -3.88251e-019 9.70628e-020 -3.87848e-018
LeftArm  -8.38249 52.9404 -70.67
LeftForeArm  -8.34989 -25.3521 2.40167
LeftHand  -0.740358 -3.90473 9.87145
RightShoulder  7.14438 10.3315 34.0121
RightArm  7.08236 -31.0169 25.578
RightForeArm  15.0124 16.8676 -7.23862
RightHand  -1.07197 3.2577 -14.227
LeftUpLeg  -19.3916 4.76363 1.18091
LeftLeg  40.0875 6.60855 19.1086
LeftFoot  -7.81954 0.309565 -7.18777
LeftToes  9.37148e-011 4.50685e-012 -4.11107e-011
33
root  1.02329 38.1869 -83.3359 3.87709 -15.0229 -1.58626
RightUpLeg  -20.2215 -4.83832 9.97803
RightLeg  25.5148 6.40063 -4.14815
RightFoot  -11.7652 0.090419 -4.39093
RightToes  5.82077e-011 -3.18055e-015 -2.98177e-016
Spine  16.1355 0.197624 9.01261
Spine1  6.52084 1.07426 2.22849
HEad  -6.95884 6.3681 -2.33827
LeftShoulder1  -3.88251e-019 9.70628e-020 -3.87848e-018
LeftArm  -9.09567 53.4646 -70.6332
LeftForeArm  -7.90612 -25.1468 2.2337
LeftHand  -0.769159 -3.80164 10.3562
RightShoulder  6.97593 10.2302 33.3598
RightArm  8.77658 -30.2341 26.6882
RightForeArm  12.8302 17.9425 -8.04765
RightHand  -1.0807 3.50421 -13.9571
LeftUpLeg  -20.4875 5.63335 0.96921
LeftLeg  44.0472 4.9795 20.2412
LeftFoot  -6.35396 0.407617 -7.21336
LeftToes  9.37148e-011 4.50685e-012 -4.11107e-011
34
root  1.12747 38.0289 -83.5567 4.94654 -16.3996 -1.78067
RightUpLeg  -22.5039 -5.50966 10.933
RightLeg  26.7745 8.62136 -4.15374
RightFoot  -11.8548 0.0887898 -4.51561
RightToes  5.82077e-011 -3.18055e-015 -2.98177e-016
Spine  17.9642 0.231852 8.60642
Spine1  5.98539 1.04118 2.66419
HEad  -5.10104 6.54656 -3.25798
LeftShoulder1  -3.88251e-019 9.70628e-020 -3.87848e-018
LeftArm  -10.1943 53.5643 -70.5515
LeftForeArm  -7.03504 -24.8511 2.04755
LeftHand  -0.836309 -4.12766 10.8544
RightShoulder  6.79677 10.1166 32.6678
RightArm  10.8746 -29.2316 28.2827
RightForeArm  10.0397 19.15 -9.15228
RightHand  -1.07679 3.50612 -13.9051
LeftUpLeg  -21.5647 6.31352 0.639004
LeftLeg  47.4429 3.64335 21.2434
LeftFoot  -5.1378 0.557047 -8.15592
LeftToes  9.37148e-011 4.50685e-012 -4.11107e-011
35
root  1.27405 37.8451 -83.8293 6.29462 -17.8641 -1.93489
RightUpLeg  -25.2646 -5.93523 11.818
RightLeg  28.2251 10.7439 -3.90064
RightFoot  -11.7686 0.0990849 -5.0668
RightToes  5.82077e-011 -3.18055e-015 -2.98177e-016
Spine  19.9928 0.208102 8.30891
Spine1  5.57463 1.09469 2.32472
HEad  -4.326 6.84776 -3.93388
LeftShoulder1  -3.88251e-019 9.70628e-020 -3.87848e-018
LeftArm  -10.9436 53.0902 -70.1148
LeftForeArm  -6.29926 -24.6095 1.94341
LeftHand  -0.882699 -4.66505 10.8287
RightShoulder  6.62227 10.0032 31.9884
RightArm  13.006 -28.1242 30.3346
RightForeArm  6.83355 20.4849 -10.5336
RightHand  -1.07983 3.24193 -14.3577
LeftUpLeg  -22.5466 6.9329 0.179159
LeftLeg  49.488 3.16871 22.2359
LeftFoot  -4.61894 0.876886 -11.9607
LeftToes  9.37148e-011 4.50685e-012 -4.11107e-011
36
root  1.45797 37.6329 -84.1365 8.01509 -19.4001 -2.09868
RightUpLeg  -28.5067 -5.6435 12.3997
RightLeg  29.9072 12.1645 -3.25636
RightFoot  -11.5462 0.117822 -5.73731
RightToes  5.82077e-011 -3.18055e-015 -2.98177e-016
Spine  22.291 0.12379 8.07841
Spine1  4.88995 1.1884 1.37664
HEad  -4.26459 7.27252 -4.42889
LeftShoulder1  -3.88251e-019 9.70628e-020 -3.87848e-018
LeftArm  -10.4467 52.1253 -69.0567
LeftForeArm  -6.34199 -24.5054 1.86863
LeftHand  -0.868219 -4.89343 10.4164
RightShoulder  6.45251 9.91816 31.2624
RightArm  15.0819 -26.9382 32.5347
RightForeArm  3.74913 22.0329 -11.9219
RightHand  -1.08545 2.84719 -15.0932
LeftUpLeg  -23.5202 7.60883 -0.432015
LeftLeg  49.7714 3.71181 23.1087
LeftFoot  -5.64984 1.11927 -17.44
LeftToes  9.37148e-011 4.50685e-012 -4.11107e-011
37
root  1.66801 37.3533 -84.4435 10.2208 -21.0358 -2.34757
RightUpLeg  -32.4327 -5.50729 13.1523
RightLeg  32.0111 13.7456 -2.32597
RightFoot  -11.4709 0.127279 -6.12537
RightToes  5.82077e-011 -3.18055e-015 -2.98177e-016
Spine  24.334 0.0903397 7.77847
Spine1  4.47145 1.26544 0.409489
HEad  -4.73703 7.72332 -4.94739
LeftShoulder1  -3.88251e-019 9.70628e-020 -3.87848e-018
LeftArm  -8.9427 50.5142 -67.5688
LeftForeArm  -6.64273 -24.4038 1.68407
LeftHand  -0.828307 -4.77251 10.0706
RightShoulder  6.26896 9.85883 30.3964
RightArm  16.4783 -25.2147 34.9465
RightForeArm  2.10634 23.6065 -12.8406
RightHand  -1.09342 2.77527 -15.3332
LeftUpLeg  -24.8486 8.63637 -1.17486
LeftLeg  48.9274 4.49234 23.3485
LeftFoot  -8.92358 0.757443 -21.1389
LeftToes  9.37148e-011 4.50685e-012 -4.11107e-011
38
root  1.88911 36.9862 -84.7302 12.7931 -22.626 -2.69516
RightUpLeg  -36.9205 -5.47217 14.135
RightLeg  34.6198 15.3351 -1.23949
RightFoot  -11.6619 0.119204 -6.22741
RightToes  5.82077e-011 -3.18055e-015 -2.98177e-016
Spine  25.8121 0.119693 7.372
Spine1  4.98206 1.28434 -0.363347
HEad  -5.84743 8.08178 -5.44603
LeftShoulder1  -3.88251e-019 9.70628e-020 -3.87848e-018
LeftArm  -7.79595 47.8996 -66.0956
LeftForeArm  -6.04636 -24.0104 1.24951
LeftHand  -0.820232 -4.76231 9.98551
RightShoulder  6.04321 9.78285 29.3236
RightArm  17.0295 -22.5645 38.0139
RightForeArm  2.06778 24.6483 -13.3483
RightHand  -1.13232 3.36243 -14.8492
LeftUpLeg  -26.9272 10.1256 -2.00985
LeftLeg  48.2554 4.64106 22.9785
LeftFoot  -13.5086 -0.105576 -21.3422
LeftToes  9.37148e-011 4.50685e-012 -4.11107e-011
39
root  2.101 36.5539 -85.006 15.5753 -23.8548 -3.15471
RightUpLeg  -41.675 -5.57651 15.3775
RightLeg  37.4965 16.7732 -0.045937
RightFoot  -11.944 0.107589 -6.4734
RightToes  5.82077e-011 -3.18055e-015 -2.98177e-016
Spine  27.1259 0.111253 6.94949
Spine1  5.82964 1.22685 -1.10964
HEad  -7.40855 8.31021 -5.72935
LeftShoulder1  -3.88251e-019 9.70628e-020 -3.87848e-018
LeftArm  -7.70011 44.2999 -64.7068
LeftForeArm  -4.24652 -23.0858 0.427127
LeftHand  -0.872241 -5.1306 10.2277
RightShoulder  5.81746 9.70481 28.2391
RightArm  16.9966 -19.1546 41.4244
RightForeArm  2.95354 24.9387 -13.5356
RightHand  -1.20747 4.1934 -14.4829
LeftUpLeg  -30.1227 11.7072 -2.83244
LeftLeg  48.8573 4.08547 22.8238
LeftFoot  -17.453 -0.810644 -19.8151
LeftToes  9.37148e-011 4.50685e-012 -4.11107e-011
40
root  2.28858 36.0613 -85.29 18.6008 -24.4473 -3.84907
RightUpLeg  -46.6308 -5.82499 17.0629
RightLeg  40.4791 17.9228 1.13298
RightFoot  -12.1918 0.100278 -7.10599
RightToes  5.82077e-011 -3.18055e-015 -2.98177e-016
Spine  28.6665 0.0172743 6.62895
Spine1  6.0284 1.01321 -1.60126
HEad  -8.98599 8.53663 -5.85675
LeftShoulder1  -3.88251e-019 9.70628e-020 -3.87848e-018
LeftArm  -8.24092 40.0853 -63.2561
LeftForeArm  -1.78663 -21.6013 -0.76383
LeftHand  -0.96824 -5.60467 10.8348
RightShoulder  5.61269 9.64892 27.2106
RightArm  17.1627 -15.35 44.5802
RightForeArm  3.57544 24.6281 -13.4014
RightHand  -1.26417 4.41736 -14.826
LeftUpLeg  -34.6193 12.9729 -3.39441
LeftLeg  51.0195 2.88957 23.1253
LeftFoot  -19.9677 -1.21012 -19.028
LeftToes  9.37148e-011 4.50685e-012 -4.11107e-011
41
root  2.45069 35.496 -85.5682 21.858 -24.4929 -4.93253
RightUpLeg  -51.6594 -5.84796 19.2268
RightLeg  43.4936 18.5925 2.05068
RightFoot  -12.4652 0.0900995 -7.97861
RightToes  5.82077e-011 -3.18055e-015 -2.98177e-016
Spine  30.2722 -0.0549151 6.53259
Spine1  5.73556 0.69502 -1.58151
HEad  -10.3719 8.81801 -6.01237
LeftShoulder1  -3.88251e-019 9.70628e-020 -3.87848e-018
LeftArm  -9.04508 35.3865 -61.8322
LeftForeArm  1.18194 -19.664 -2.0244
LeftHand  -1.03945 -5.832 11.3759
RightShoulder  5.34683 9.52708 25.9504
RightArm  17.8989 -11.1937 47.5327
RightForeArm  3.24804 23.8777 -13.0157
RightHand  -1.23846 3.89799 -15.3088
LeftUpLeg  -40.0862 14.1836 -3.50347
LeftLeg  54.3803 0.899698 23.266
LeftFoot  -21.6246 -1.4952 -19.0764
LeftToes  9.37148e-011 4.50685e-012 -4.11107e-011
